# xmcd
#
# Track frame offsets:
#	150
#	14725
#	26901
#	42144
#	53482
#	64296
#	75834
#	91715
#	103389
#	116126
#	126577
#	139169
#	149721
#	159324
#
# Disc length: 2340 seconds
#
# Revision: 0
# Processed by: cddbd v1.5.2PL0 Copyright (c) Steve Scherf et al.
# Submitted via: EasyCDDAExtractor 16.0.6.1
#
DISCID=c709220e
DTITLE=Συλλογικός δίσκος - Παίξε Χρήστο επειγόντως-1982, Χρ. Νικολόπουλου-Μ. Ρ
DTITLE=ασούλη
DYEAR=2007
DGENRE=Λαϊκή
TTITLE0=Βιτάλη Ελένη - Παίξε Χρήστο επειγόντως
TTITLE1=Σαρρής Γιώργος - Με τα φώτα νυσταγμένα
TTITLE2=Τερζής Πασχάλης - Το πιο παράξενο τραγούδι
TTITLE3=Βιτάλη Ελένη - Ζούμε σε ψεύτρα εποχή
TTITLE4=Σαρρής Γιώργος - Το είχες κάνει σχέδιο
TTITLE5=Σαρρής Γιώργος - Είπα, να τής πω ένα γεια
TTITLE6=Κοντογιάννης Δημήτρης - Καθόμουνα στου Λέντζου
TTITLE7=Τερζής Πασχάλης - Η ζωή γυναίκα μοιάζει
TTITLE8=Κοντογιάννης Δημήτρης - Στα μέντιουμ θα πάω
TTITLE9=Βιτάλη Ελένη - Ο Μάρκος και ο Ομάρ Καγιάμ
TTITLE10=Σαρρής Γιώργος - Το ζεϊμπέκικο του Θεού
TTITLE11=Βιτάλη Ελένη - Όταν με κοιτάς στα μάτια
TTITLE12=Κοντογιάννης Δημήτρης - Ο σεΐχης
TTITLE13=Σαρρής Γιώργος - Σαν τον φονιά
EXTD=
EXTT0=
EXTT1=
EXTT2=
EXTT3=
EXTT4=
EXTT5=
EXTT6=
EXTT7=
EXTT8=
EXTT9=
EXTT10=
EXTT11=
EXTT12=
EXTT13=
PLAYORDER=
